<svg width="225" height="133" viewBox="0 0 225 133" fill="none" xmlns="http://www.w3.org/2000/svg">
<g clip-path="url(#clip0_842_7790)">
<path d="M49.0233 33.7133C50.8403 34.1734 51.4528 34.9875 51.7468 35.5615C52.0408 36.1396 52.0979 36.7787 51.9142 37.483C51.5018 39.1399 51.265 40.1617 51.1956 40.5444C51.0445 41.2283 50.7832 41.7249 50.4157 42.0425C50.0441 42.36 49.5051 42.6083 48.7865 42.7956C48.0066 43.0235 47.19 43.1335 46.3366 43.1253C45.4832 43.1172 44.5237 43.052 43.4498 42.9299C42.3759 42.8078 41.5838 42.7467 41.0734 42.7386C40.9917 42.7223 40.7508 42.7019 40.3588 42.6734C39.9669 42.6449 39.681 42.6368 39.5095 42.649C39.3381 42.6612 39.1176 42.7264 38.8562 42.8526C38.5908 42.9747 38.3826 43.166 38.2193 43.4184C38.0192 43.7522 37.9743 43.9843 38.0927 44.1186C38.1335 44.2123 38.2683 44.4199 38.4928 44.7415C38.7174 45.0672 38.8848 45.2951 38.991 45.4254C39.0971 45.5557 39.2482 45.7348 39.4524 45.9546C39.6565 46.1744 39.8525 46.3739 40.0485 46.549C40.5181 46.9438 41.5021 47.7173 43.0047 48.8613C44.5073 50.0093 45.6343 50.9334 46.3897 51.6336C47.4595 52.6472 48.1904 53.8115 48.5783 55.1305C48.9662 56.4495 48.9784 57.8132 48.615 59.2218C47.6473 62.8774 45.9609 65.3729 43.56 66.7041C40.5018 68.3732 36.8473 68.8414 32.5968 68.1127C31.8332 67.9783 30.6491 67.8114 27.648 67.4532C26.5741 67.327 25.4839 67.3473 24.4141 67.5061C23.871 67.5834 23.3647 67.6404 22.936 67.5997C22.0826 67.5183 21.5028 67.4654 21.1925 67.4369C20.5759 67.3962 19.9879 66.3988 20.0002 65.6945C20.0247 65.2467 20.3677 63.9033 20.2819 61.8475C20.2166 60.268 20.4453 58.4442 22.0173 57.6911C22.4052 57.5038 22.7645 57.398 23.0217 57.3043C23.279 57.2107 23.7322 57.0072 24.312 56.9135C25.1531 56.7711 25.4839 56.7792 26.1494 56.7263C26.815 56.6734 27.3621 56.6652 27.799 56.7019C28.2318 56.7385 28.8607 56.7996 29.6855 56.8891C30.5103 56.9787 31.0737 57.0357 31.3841 57.0642C32.6172 57.17 33.7196 56.8118 34.6914 55.9935C35.0589 55.6923 35.2059 55.2607 35.1365 54.7112C35.063 54.1616 34.7935 53.7586 34.328 53.5021C30.3265 51.0596 28.1869 49.7569 27.9011 49.594C26.9089 48.9345 25.7901 48.0389 24.5407 46.9113C24.1038 46.492 23.7118 45.8081 23.4627 43.9395C23.5525 41.3748 23.9649 38.7898 25.2144 36.7462C26.913 33.9291 28.9056 32.7363 32.1884 31.8733C34.7894 31.1731 39.3013 31.6616 41.5021 32.2519L49.0274 33.7215L49.0233 33.7133Z" fill="black"/>
<path d="M113.856 25.5061C115.094 24.8751 115.837 24.5332 116.082 24.4803C121.729 23.0107 125.445 22.1028 127.237 21.769C130.602 21.1421 133.582 21.2602 136.183 22.1191C136.587 22.2575 137 22.4692 137.42 22.7501C137.841 23.031 138.168 23.2671 138.396 23.4585C138.625 23.6498 138.964 23.9795 139.409 24.4396C139.854 24.8996 140.136 25.2008 140.254 25.3474C142.402 27.395 143.7 29.6259 144.149 32.044C144.378 33.3386 143.749 36.9943 143.214 38.529C142.68 40.0638 141.896 42.5348 140.793 43.2635C137.555 45.4944 135.011 45.8078 131.982 46.9029C131.528 47.0617 131.247 47.2774 131.136 47.5624C131.026 47.8433 131.055 48.226 131.218 48.7023C131.537 49.7485 131.112 49.3088 131.888 51.8409C132.619 54.2306 136.212 56.437 133.574 59.0098C131.859 60.683 129.887 60.7156 127.69 61.2651C125.571 61.7944 121.357 64.2898 119.961 63.4105C118.76 62.6533 118.311 59.2012 117.94 57.0477C117.735 55.863 117.511 54.6784 117.29 53.4937C116.809 50.9372 116.065 47.1512 115.057 42.1399C114.048 37.1246 113.309 33.3671 112.84 30.8635C112.562 29.4916 112.35 28.4372 112.203 27.7085C112.056 26.9757 112.411 26.2389 113.081 25.901C113.305 25.787 113.558 25.6568 113.848 25.5102L113.856 25.5061ZM128.744 38.3703C129.475 38.2726 130.103 37.951 130.63 37.4055C131.153 36.8559 131.565 36.2819 131.863 35.6753C132.161 35.0687 132.533 34.0876 132.99 32.7361C133.239 32.0766 133.203 31.4985 132.876 31.01C132.549 30.5215 132.059 30.3261 131.402 30.4279C129.699 30.6721 127.796 31.1566 125.694 31.8771C125.489 31.9219 125.293 32.1295 125.102 32.4918C124.914 32.8582 124.836 33.188 124.865 33.4852C124.901 33.7864 125.118 34.8408 125.514 36.6483C125.722 37.5968 126.457 38.3255 127.298 38.3906C127.854 38.4354 128.335 38.4273 128.748 38.3743L128.744 38.3703Z" fill="black"/>
<path d="M157.786 53.4449C157.823 53.5792 157.99 53.7013 158.293 53.8194C158.595 53.9375 158.856 53.9863 159.081 53.9741C160.338 53.8967 162.143 53.7624 164.491 53.567C166.839 53.3716 167.655 53.2454 168.578 53.1884C169.109 53.1558 169.868 53.1884 170.861 53.2942C171.424 53.3431 171.657 53.6769 171.555 54.3079C171.346 55.9444 171.224 58.4033 171.191 59.2419C171.146 60.8417 170.383 62.2788 168.897 62.751C166.308 63.557 163.976 63.6222 160.281 63.7647C157.321 63.8787 153.83 63.7036 150.931 62.9871C149.297 62.58 147.427 61.1145 146.537 59.5838C145.533 57.8537 146.325 55.7368 146.357 53.7787C146.419 50.3754 146.562 46.8215 145.867 43.467C145.198 40.2307 145.81 37.1978 146.235 33.9004C146.308 33.2734 146.582 32.2435 147.06 30.8065C147.317 29.9801 147.782 29.5323 148.452 29.4631C148.901 29.4346 149.71 29.3328 150.878 29.1537C152.045 28.9745 152.939 28.8687 153.552 28.828C156.569 28.6733 159.468 27.6881 162.449 27.5945C164.303 27.5375 166.108 27.3787 167.961 27.509C168.582 27.5538 169.076 27.5904 169.444 27.623C170.093 27.6637 170.436 28.0382 170.481 28.7384C170.493 29.3857 170.534 30.2976 170.603 31.47L170.771 34.2383C170.807 34.857 170.624 35.3781 170.211 35.7933C169.803 36.2086 169.276 36.4366 168.631 36.4773C168.574 36.4773 167.643 36.518 165.838 36.5872C164.029 36.6564 163.103 36.7174 163.049 36.7744C161.628 36.9698 160.065 37.3322 158.358 37.8695C158.137 37.9387 157.941 38.4232 157.774 39.3228C157.749 39.4043 157.815 39.5223 157.966 39.677C158.117 39.8317 158.248 39.9172 158.362 39.9375C160.118 40.1818 161.416 40.308 162.261 40.3121C163.899 40.3202 165.532 39.8806 167.116 39.9986C168.925 40.137 169.962 39.9457 171.742 39.7096C173.025 39.5386 173.094 40.7721 173 41.7328C172.812 43.7276 172.502 45.6124 172.441 47.6194C172.384 49.3617 170.55 48.7918 169.284 48.8569C167.704 48.9384 166.52 48.9384 164.94 49.0361C162.837 49.1623 160.775 49.0401 158.68 48.9465C157.77 48.9058 157.745 48.5842 157.337 49.4717C157.076 50.0416 157.37 51.0105 157.464 51.5845C157.566 52.1992 157.631 52.8383 157.794 53.4408L157.786 53.4449Z" fill="black"/>
<path d="M185.328 33.0416C185.928 33.0579 186.524 33.0945 187.12 33.1474C187.908 33.2166 189.056 33.3103 190.566 33.4324C192.751 33.6074 194.437 33.7947 195.625 33.986C199.529 34.613 202.322 36.6077 204 39.9744C205.372 42.706 205.327 45.6615 203.865 48.8449C202.608 51.5765 200.693 53.8359 198.12 55.623C198.059 55.6434 197.132 55.9365 196.144 56.5064L196.72 56.828C198.504 57.6381 199.447 58.0656 199.553 58.1103C200.999 58.7047 201.734 60.0359 201.754 62.0998C201.754 63.1176 201.734 64.1719 201.693 65.267C201.652 66.3621 201.632 67.4328 201.815 68.8779C201.999 70.3231 202.399 70.7424 202.367 71.3897C202.338 72.0044 200.929 73.1605 200.252 73.1524C195.956 73.1198 193.294 73.1158 192.273 73.1443C191.763 73.1565 191.416 73.0588 191.232 72.8512C191.048 72.6435 190.962 72.2975 190.971 71.8212C190.983 71.3164 190.995 70.5755 191.003 69.6026C191.011 68.6296 191.011 67.9742 191.003 67.6322C191.024 66.0812 190.264 65.2141 188.733 65.0309L185.609 64.5953C184.972 64.5058 184.495 64.5587 184.184 64.7582C183.874 64.9536 183.662 65.3688 183.543 66.0039C183.486 66.2318 183.184 68.8454 183.482 70.1928C183.731 71.3205 182.506 72.7738 181.33 72.7046C180.424 72.6517 179.117 71.8579 177.786 71.7886C176.798 71.7357 175.757 71.6095 174.801 71.3449C174.397 71.235 174.095 71.1332 173.678 71.0925C173.29 71.0559 173.029 71.0192 172.817 70.6447C172.625 70.3068 172.568 69.8468 172.649 69.2687C172.658 69.0163 172.837 67.616 173.192 65.0676L174.858 53.152C174.928 52.6553 175.165 50.9211 175.565 47.9575C175.965 44.9938 176.275 42.7222 176.496 41.1468C176.667 39.9296 176.904 38.8793 176.733 37.5644C176.606 36.6077 176.692 36.3757 177.035 35.362C177.272 34.6537 177.721 33.7499 178.415 33.3754C179.513 32.7851 181.244 32.9113 182.465 32.948C183.421 32.9765 184.372 33.005 185.328 33.0334V33.0416ZM189.897 50.3715C190.011 50.3593 190.256 50.343 190.623 50.3227C190.995 50.3023 191.281 50.282 191.481 50.2535C191.685 50.225 191.91 50.172 192.163 50.0947C192.416 50.0173 192.62 49.9196 192.775 49.7975C194.045 48.8164 194.47 47.3794 194.057 45.4905C193.78 44.2366 192.82 43.3003 191.183 42.6775C190.726 42.5024 190.248 42.3721 189.75 42.2867C189.252 42.2052 188.725 42.1727 188.17 42.193C187.614 42.2134 187.145 42.2419 186.757 42.2704C186.369 42.3029 185.858 42.3559 185.226 42.4373C184.646 42.5268 184.348 42.8362 184.331 43.3695C184.303 43.7888 184.258 44.4972 184.205 45.4905C184.152 46.4838 184.115 47.2491 184.099 47.7824C184.086 47.8801 184.095 48.6862 184.127 50.1965C184.135 50.5425 184.433 50.8112 184.776 50.7827C187.863 50.5384 189.57 50.3959 189.893 50.3634L189.897 50.3715Z" fill="black"/>
<path d="M43.3841 108.117C42.3755 108.117 41.9386 108.13 41.0975 107.531C40.1012 106.823 39.2968 105.883 38.6925 104.82L38.57 104.608C38.3536 104.104 38.2025 103.639 38.125 103.212L37.5329 100.757C37.3083 99.5156 38.0474 98.2984 39.2601 97.9239H39.5214C40.779 97.8995 42.8043 97.6349 44.0251 97.3255H44.0374C44.462 97.2156 45.0786 97.0731 45.8871 96.898C46.6955 96.7189 47.2508 96.5927 47.553 96.5194C48.7575 96.2263 49.6844 95.5343 50.3459 94.4473C50.5949 94.0443 50.599 93.5884 50.354 93.0876C50.109 92.5869 49.7252 92.2938 49.1985 92.2002C44.6213 91.1621 42.1714 90.6125 41.8488 90.5474C40.6973 90.238 39.3458 89.7495 37.7983 89.0778C37.2512 88.8213 36.8878 88.4101 36.7203 87.8402C35.9813 85.3814 35.8751 82.9795 36.3978 80.6387C37.1042 77.4227 38.8722 74.8825 41.71 73.018C43.7842 71.6339 45.8707 70.8319 47.9735 70.6039C48.3125 70.5673 48.6473 70.5144 48.9698 70.4167L56.6176 68.1899C57.226 68.1003 59.484 69.171 59.9495 69.6228C60.4149 70.0747 60.6722 70.665 60.7253 71.3937C60.8682 73.0953 60.9703 74.1416 61.0274 74.5283C61.105 75.2244 61.0193 75.7821 60.7702 76.1974C60.5211 76.6167 60.0883 77.0278 59.4677 77.4309C58.8021 77.899 58.063 78.2654 57.2505 78.5259C56.438 78.7905 55.507 79.0348 54.4494 79.2628C53.3919 79.4908 52.6202 79.6862 52.1343 79.8449C52.0526 79.8571 51.8199 79.9141 51.4361 80.0118C51.0563 80.1136 50.7828 80.195 50.6235 80.2602C50.4643 80.3253 50.2765 80.4596 50.0682 80.6632C49.86 80.8667 49.7171 81.111 49.6476 81.4041C49.5619 81.7827 49.5986 82.0188 49.7538 82.1084C49.8232 82.1816 50.0151 82.3363 50.3336 82.5724C50.6521 82.8085 50.8808 82.9714 51.0237 83.0609C51.1666 83.1546 51.3667 83.2726 51.628 83.4151C51.8893 83.5576 52.1425 83.6838 52.3874 83.7896C52.9591 84.0135 55.2987 84.2944 57.0913 84.901C58.8838 85.5076 59.4105 85.5849 60.3537 86.0083C61.693 86.6271 62.4443 88.0723 63.2405 89.1958C64.0326 90.3194 64.4818 91.6099 64.5879 93.0632C64.8452 96.841 64.9677 100.647 63.1221 102.675C60.7579 105.235 56.5278 105.944 52.2609 106.611C51.3993 106.742 49.0107 107.218 45.0908 108.048L44.4947 108.081C44.1231 108.101 43.7475 108.109 43.3718 108.109L43.3841 108.117Z" fill="black"/>
<path d="M66.1848 88.7069C65.5928 88.2591 65.4989 87.3105 65.4376 85.7961C65.3804 84.3998 65.3192 82.4376 65.2498 79.9096C65.1804 77.3815 65.1314 75.627 65.1028 74.65C65.0456 73.1111 65.7602 72.358 67.2464 72.3865C68.1162 72.415 69.5167 72.4842 71.4521 72.5941C73.3875 72.7041 74.8575 72.7773 75.866 72.8018C77.042 72.8303 78.957 72.8384 81.6069 72.8221C84.2569 72.8099 86.1678 72.8303 87.3479 72.8832C88.6953 72.9117 90.6144 73.1193 93.1092 73.5101C93.7543 73.5956 94.1831 73.7706 94.3913 74.0352C94.5996 74.2999 94.6935 74.768 94.6649 75.4397C94.6649 75.9445 94.6241 76.6569 94.5383 77.577C94.4526 78.5011 94.3995 79.1402 94.3709 79.5066C94.3709 82.2992 93.8319 84.9616 93.8238 87.7787C93.8156 90.1073 89.8059 89.5251 88.1032 89.6513C87.3479 89.7083 86.8661 89.8549 86.6537 90.091C86.4455 90.3271 86.3802 90.8115 86.4659 91.5362C86.6333 92.6801 86.7313 93.9461 86.7599 95.3302C86.7885 96.7144 86.7803 97.8542 86.7395 98.7458C86.6986 99.6414 86.6047 100.94 86.4659 102.646C86.3271 104.351 86.2413 108.264 86.2127 108.931V111.362C86.2127 111.321 77.1359 111.125 76.4009 111.105C74.1307 111.044 73.6162 110.507 73.5549 108.154C73.5019 106.228 73.902 104.331 73.9633 102.414C74.0408 100.04 74.1184 97.671 74.1919 95.2977C74.2327 93.9869 74.2736 92.676 74.3144 91.3692C74.3348 90.7098 74.7391 88.7923 74.2899 88.2428C73.3549 87.0988 69.8923 88.6661 68.6715 88.8778C67.4016 89.0977 66.6462 89.0488 66.1848 88.7028V88.7069Z" fill="black"/>
<path d="M127.089 106.196C127.117 106.306 127.166 106.44 127.236 106.595C127.305 106.75 127.824 107.764 127.877 107.89C127.934 108.016 128.142 108.329 127.971 108.618C127.909 108.72 127.591 109.343 127.215 109.457C127.162 109.473 126.791 109.481 126.705 109.481C126.06 109.481 125.043 109.461 123.655 109.42C122.266 109.38 121.221 109.359 120.523 109.359C119.204 109.359 117.971 109.4 116.824 109.486C116.432 109.543 116.138 109.514 115.942 109.4C115.746 109.286 115.607 109.05 115.521 108.688C114.68 105.643 113.149 103.074 113.316 101.063C113.316 101.006 113.247 100.546 113.108 99.6787C109.098 99.4548 107.984 99.353 107.367 99.296C106.693 99.2675 106.036 99.1698 105.391 99.0029C104.803 98.8645 104.292 98.9174 103.855 99.1698C103.423 99.4222 103.121 99.8415 102.953 100.428C102.729 101.295 102.373 103.302 101.879 105.231C101.389 107.161 101.761 106.184 101.508 107.194C101.45 107.389 101.348 107.593 101.193 107.8C101.038 108.008 100.907 108.114 100.793 108.114C98.2983 108.252 95.3584 108.419 92.8636 108.447C92.443 108.476 92.1368 108.35 91.9367 108.069C91.7407 107.788 91.6999 107.426 91.8101 106.978C92.4553 104.043 92.8187 102.842 93.4883 99.8782C94.8888 93.7311 95.8443 89.6479 96.3465 87.6369C96.5139 86.9123 96.8284 85.7765 97.2938 84.2417C97.7552 82.7029 98.086 81.5468 98.282 80.7611C98.8414 78.4122 99.6294 76.4988 100.638 75.017C101.03 74.4308 101.577 74.1214 102.279 74.0929C106.203 73.8975 109.649 73.6858 112.622 73.466C113.884 73.3805 114.864 73.5271 115.566 73.9057C116.268 74.2843 116.828 75.0007 117.248 76.0633C118.424 79.0554 119.363 81.6811 120.066 83.9446C120.262 84.5593 120.976 87.2705 122.209 92.0783L123.655 97.6514C124.369 100.411 125.415 103.074 126.762 105.586L127.085 106.192L127.089 106.196ZM105.309 91.1175C105.26 91.8992 105.587 92.29 106.297 92.29C109.111 92.2615 110.821 92.2615 111.43 92.29C111.809 92.29 112.071 92.2004 112.21 92.0172C112.348 91.834 112.393 91.549 112.344 91.1582C111.965 87.5799 111.748 85.5974 111.699 85.2065C111.675 85.0966 111.609 84.9745 111.507 84.8483C111.405 84.7221 111.303 84.661 111.201 84.661C110.683 84.6407 109.527 84.6285 107.73 84.6203C106.644 84.6203 105.738 85.5363 105.648 86.7291C105.46 89.3182 105.346 90.7796 105.305 91.1135L105.309 91.1175Z" fill="black"/>
<path d="M183.416 77.5286C184.02 77.6507 184.461 78.0089 184.743 78.5911C185.02 79.1773 185.061 79.8205 184.861 80.5207C184.408 82.1694 184.138 83.1831 184.061 83.5657C183.893 84.2456 183.62 84.7382 183.24 85.0435C182.86 85.3529 182.313 85.589 181.59 85.7518C180.802 85.9594 179.982 86.049 179.132 86.0164C178.279 85.9839 177.319 85.8943 176.25 85.7437C175.18 85.5931 174.388 85.5116 173.877 85.4913C173.796 85.475 173.559 85.4465 173.163 85.4099C172.771 85.3732 172.485 85.3569 172.313 85.3651C172.142 85.3732 171.921 85.4343 171.652 85.5524C171.387 85.6704 171.166 85.8536 171.003 86.1019C170.79 86.4317 170.746 86.6637 170.86 86.7981C170.897 86.8917 171.027 87.1034 171.244 87.4331C171.46 87.7629 171.619 87.9949 171.721 88.1293C171.823 88.2636 171.97 88.4427 172.166 88.6707C172.362 88.8987 172.558 89.1022 172.746 89.2813C173.208 89.6884 174.171 90.4863 175.641 91.675C177.111 92.8637 178.218 93.8163 178.957 94.541C180.002 95.5831 180.7 96.7677 181.056 98.0949C181.411 99.422 181.386 100.79 180.982 102.19C179.916 105.821 179.218 107.169 176.78 108.439C173.677 110.027 169.659 110.605 165.429 109.766C164.551 109.587 162.028 109.196 157.859 108.594C157.394 108.496 156.732 108.398 155.883 108.297C155.029 108.195 154.454 108.126 154.143 108.089C153.527 108.02 152.967 107.112 152.837 106.42C152.743 105.907 152.837 106.42 152.563 104.059C152.535 103.509 152.555 103.025 152.629 102.597C152.702 102.17 152.841 101.808 153.049 101.506C153.253 101.205 153.449 100.953 153.633 100.749C153.817 100.546 154.107 100.354 154.503 100.179C154.895 100.004 155.225 99.8698 155.487 99.7802C155.748 99.6907 156.16 99.5604 156.724 99.3935C157.287 99.2225 157.904 99.1207 158.57 99.0882C159.235 99.0556 159.786 99.0597 160.219 99.1045C160.652 99.1492 161.281 99.2307 162.101 99.3406C162.922 99.4505 163.486 99.5238 163.796 99.5604C165.025 99.6988 167.116 100.55 168.112 99.7558C168.488 99.4627 168.496 98.2536 168.439 97.7C168.381 97.1463 166.119 95.5831 165.662 95.3144C161.726 92.766 160.791 92.1635 160.509 91.9926C159.533 91.3086 158.439 90.3845 157.218 89.2203C156.793 88.7887 156.099 87.3843 156.226 85.2877C156.385 82.7231 156.344 80.6062 157.647 78.5911C159.423 75.8188 161.963 74.0439 165.274 73.2663C167.895 72.6353 172.24 74.0439 174.424 74.6952L183.42 77.5245L183.416 77.5286Z" fill="black"/>
<path d="M72.6475 25.5712C74.7667 25.4654 76.8817 26.1452 78.4374 27.5864C78.4497 27.5986 78.4619 27.6067 78.4742 27.6189C79.6542 28.7221 80.4912 30.147 80.9771 31.8975C82.4144 36.9495 82.7942 41.4194 82.1164 45.3071C81.5365 48.5109 80.9771 51.7392 80.43 54.9959C79.7889 58.7126 77.437 60.9394 73.3702 61.6844C72.2351 61.8839 71.2592 62.1078 70.4385 62.3561C69.7525 62.5352 69.0543 62.6777 68.3479 62.7754C67.6374 62.8731 66.9229 62.9057 66.2002 62.865C65.4775 62.8243 64.816 62.7632 64.2158 62.6859C63.6155 62.6044 62.9255 62.462 62.1456 62.2625C61.3657 62.0589 60.7124 61.888 60.1898 61.7414C59.6671 61.5989 58.9852 61.3832 58.14 61.1023C57.4418 60.8906 56.0086 59.8932 55.5635 59.3029C54.1712 57.4507 54.0487 56.8278 53.7343 55.9322C52.199 51.8735 52.0398 47.9695 52.7094 43.8171C53.5873 38.3621 54.9143 36.0376 57.6541 31.0711C57.8705 30.6843 58.1563 30.3179 58.5157 29.9719C58.875 29.6259 59.316 29.2473 59.8386 28.828C60.3612 28.4087 60.7369 28.1074 60.9737 27.912C62.6111 26.9798 63.097 26.76 63.9953 26.4913C65.3305 26.0923 66.7065 25.8684 68.0988 25.7992L72.6557 25.5712H72.6475ZM66.3023 46.5487C66.4247 47.1064 66.535 47.5746 66.6412 47.9573C66.7432 48.3359 66.878 48.6819 67.0372 48.9913C67.1638 49.2722 67.4251 49.5124 67.8212 49.72C68.2173 49.9235 68.5602 50.0131 68.8501 49.9846C69.1074 49.9602 69.3973 49.8095 69.7117 49.5327C70.0261 49.2559 70.2507 48.9669 70.3813 48.6615C70.7243 47.8473 70.8264 46.9395 70.6957 45.9462C70.5773 45.1117 70.3854 43.9189 70.1159 42.3679C69.8464 40.8169 69.6586 39.7014 69.5606 39.0297C69.4749 38.5168 69.2585 38.2155 68.9073 38.1178C68.5562 38.0242 68.2581 38.0853 68.0213 38.3051C67.0658 38.8547 66.5391 39.4775 66.4452 40.1737C66.3308 40.6744 66.2573 41.2117 66.2165 41.7857C66.1757 42.3597 66.1348 43.0152 66.094 43.752C66.0532 44.4888 66.0328 45.0018 66.0287 45.2949C66.0899 45.5798 66.1798 46.0032 66.3023 46.5609V46.5487Z" fill="black"/>
<path d="M101.227 30.6235C102.57 30.4078 103.889 30.4892 105.179 30.8637C106.473 31.2382 107.678 32.0077 108.801 33.1679C109.924 34.3281 110.7 35.8099 111.136 37.6092C112.427 42.8119 113.66 52.7816 113.145 56.7711C112.316 63.1787 107.139 67.1723 103.195 67.8114C102.092 67.9824 101.145 68.1819 100.345 68.4139C99.6791 68.5808 99.0013 68.703 98.3153 68.7803C97.6293 68.8617 96.9352 68.8699 96.237 68.8088C95.5388 68.7477 94.9018 68.6663 94.322 68.5646C93.7422 68.4669 93.0807 68.2999 92.3253 68.072C91.574 67.844 90.9493 67.6445 90.447 67.4817C89.9448 67.3189 89.2874 67.0827 88.4749 66.7693C87.8052 66.5332 87.2703 66.1016 86.8661 65.4707C86.466 64.8437 86.1189 64.0662 85.8331 63.1421C84.4285 58.9531 83.8486 54.7112 84.0936 50.4245C84.3468 45.8488 84.996 42.303 87.744 37.3121C87.9604 36.9253 89.0914 35.3214 89.4467 34.9835C89.8019 34.6415 90.2347 34.267 90.7492 33.8559C91.2637 33.4447 91.9946 33.0091 92.4274 32.7689C93.9341 31.9751 94.7221 31.8082 97.6048 31.2301C99.8751 30.7782 101.092 30.6235 101.227 30.6113V30.6235ZM96.1553 52.9281C96.2737 53.3963 96.384 53.7912 96.4901 54.1087C96.5963 54.4262 96.7392 54.7153 96.9229 54.9758C97.0618 55.2119 97.3762 55.4114 97.8621 55.5783C98.348 55.7452 98.7726 55.8144 99.1401 55.79C99.4668 55.7656 99.8342 55.6353 100.247 55.3992C100.659 55.1631 100.957 54.9147 101.145 54.6583C101.627 53.9662 101.9 53.0869 102.002 52.2483C102.092 51.4992 101.994 50.6118 101.753 49.3091C101.512 48.0064 101.517 46.9276 101.08 46.3617C100.818 46.0198 100.39 45.8692 99.9526 45.7918C99.5157 45.7145 99.1401 45.7715 98.8298 45.9587C97.5967 46.435 96.8984 46.9642 96.7392 47.5464C96.5677 47.9698 96.437 48.4216 96.3513 48.9061C96.2656 49.3905 96.1716 49.9401 96.0777 50.5629C96.0696 50.6118 96.0614 50.6606 96.0573 50.7054C95.943 51.4422 95.9797 52.1913 96.1635 52.9119C96.1635 52.9159 96.1635 52.92 96.1635 52.9241L96.1553 52.9281Z" fill="black"/>
<path d="M158.026 93.4704C157.777 92.876 157.353 93.0877 156.275 91.9193C155.287 90.8446 155.225 89.8595 154.788 88.8539C154.351 87.8484 153.915 86.8877 153.478 85.9677C152.567 84.1154 151.334 83.2279 149.77 83.3093C149.423 83.3256 149.076 83.3256 148.729 83.3338C148.341 83.3419 147.957 83.346 147.569 83.3541C147.398 83.3541 146.304 83.5007 146.451 83.1058C146.52 82.9185 146.965 82.7801 147.124 82.6458C147.39 82.426 147.626 82.1613 147.827 81.8845C148.027 81.6077 148.165 81.3105 148.333 81.0174C149.884 78.3021 149.705 76.1079 149.668 73.1035C149.619 69.6025 148.386 66.9117 145.969 65.035C143 62.7145 139.619 62.108 135.826 63.2153C134.667 63.5491 133.066 64.1068 131.02 64.8803C128.975 65.6578 127.631 66.1585 126.998 66.3865C124.74 67.1478 123.14 67.848 121.098 69.3461C120.943 69.4601 120.796 69.5944 120.661 69.745C120.102 70.3719 119.853 71.2228 120.016 72.0451C120.02 72.0695 120.024 72.0858 120.028 72.098C120.224 72.7127 120.486 73.6613 120.821 74.9477C121.155 76.2341 121.425 77.2111 121.637 77.8787C122.119 79.3972 122.817 81.5833 123.732 84.4288C124.646 87.2744 125.181 88.9394 125.332 89.4198L128.962 100.892C129.738 103.342 130.179 104.686 130.281 104.918C130.457 105.476 130.706 105.866 131.028 106.09C131.347 106.314 131.674 106.343 132.004 106.18C132.764 105.883 134.038 105.366 135.834 104.625C137.014 104.136 140.493 103.448 140.285 101.629C140.187 100.765 139.444 99.9431 139.174 99.0964C138.991 98.5102 138.876 97.8955 138.717 97.3011C138.55 96.6783 138.562 96.2142 138.758 95.9048C138.954 95.5954 139.358 95.343 139.975 95.1476L142.984 94.2031C144.446 93.7146 145.503 94.1746 146.152 95.5791C146.308 95.8804 146.589 96.4747 147.002 97.3581C147.414 98.2415 147.72 98.9132 147.925 99.3732C148.121 99.8088 148.349 100.082 148.602 100.191C148.86 100.301 149.215 100.24 149.668 100.008C150.579 99.5442 152.984 98.4084 156.879 96.5968C157.496 96.3159 158.259 94.0444 158.022 93.4744L158.026 93.4704ZM143.262 73.9503C142.404 75.4036 141.71 75.6723 140.791 76.6737C140.51 76.9831 140.403 77.032 140.293 77.3251C140.216 77.5327 140.375 77.9724 140.636 78.298C141.298 79.1244 142.661 80.8953 142.155 81.7258C141.4 82.9592 140.297 82.8575 136.684 81.3797C136.128 81.1518 135.842 81.1884 135.499 81.6158C134.973 82.2794 133.936 85.0232 133.066 85.0395C131.057 85.0761 131.375 84.3352 131.429 81.2576C131.441 80.5289 131.482 79.9427 131.224 79.3321C131.012 78.9657 130.649 78.8232 130.191 78.469C127.17 76.3399 126.288 74.1701 129.975 74.2434C130.783 74.2597 131.522 74.5365 132.266 74.3452C132.609 74.2556 132.682 73.645 132.686 73.6246C132.997 72.6557 132.866 71.2635 133.462 69.8102C133.523 69.6555 134.156 69.4112 134.479 69.3135C134.707 69.2402 134.961 69.2362 135.185 69.3339C136.243 69.7979 136.794 71.5607 137.378 72.4481C137.594 72.7331 137.925 72.7819 138.26 72.7534C139.395 72.7249 141.343 72.1102 142.371 72.0085C142.866 71.9596 143.27 72.1469 143.315 72.5458L143.4 73.2908C143.421 73.4821 143.364 73.7793 143.266 73.9503H143.262Z" fill="black"/>
</g>
<defs>
<clipPath id="clip0_842_7790">
<rect width="185" height="90" fill="white" transform="translate(20 21.3701)"/>
</clipPath>
</defs>
</svg>
